<svg viewBox="0 0 32 32" xml:space="preserve" xmlns="http://www.w3.org/2000/svg"><path fill="none" d="M0 0h32v32H0z"></path><path d="M28 8h-4l-4-4h-8.001L8 8H4s-4 0-4 4v12c0 4 4 4 4 4h11.518a8.99 8.99 0 0 0 15.918-1.888C31.995 25.076 32 24 32 24V12c0-4-4-4-4-4zM14.033 23.66A5.988 5.988 0 0 1 10 18a6 6 0 0 1 6-6c1.914 0 3.607.908 4.706 2.306C16.848 15.321 14 18.822 14 23c0 .223.018.441.033.66zM23 29.883A6.898 6.898 0 0 1 16.115 23 6.898 6.898 0 0 1 23 16.115 6.898 6.898 0 0 1 29.883 23 6.898 6.898 0 0 1 23 29.883z" fill="#1c95e2" class="fill-000000"></path><path d="M28 22h-3.998v-4H22v4h-4v2h4v4h2.002v-4H28z" fill="#1c95e2" class="fill-000000"></path></svg>