<svg viewBox="0 0 512 512" xml:space="preserve" xmlns="http://www.w3.org/2000/svg" enable-background="new 0 0 512 512"><path d="M448.26 209.524 276.7 89.026c-12.42-8.72-28.98-8.714-41.4.006L63.74 209.521C54.48 224.012 64.89 243 82.09 243H130l20 161.725C150 417.436 160.3 428 173 428h167c12.7 0 23-10.564 23-23.275L383 243h46.91c17.2 0 27.61-18.985 18.35-33.476z" fill="#1c95e2" class="fill-747371"></path><path d="M256 218.999c27.61 0 50 22.39 50 50 0 27.611-22.39 50-50 50s-50-22.389-50-50c0-27.61 22.39-50 50-50z" fill="#ffffff" class="fill-d7deed"></path></svg>