<svg viewBox="0 0 48 48" xml:space="preserve" xmlns="http://www.w3.org/2000/svg" enable-background="new 0 0 48 48"><path d="M34.668 26.475a2.341 2.341 0 0 0-.46-.721 2.25 2.25 0 0 0-.82-.525c-1.181-.813-1.97-1.769-2.409-2.923-.003-.008-.01-.013-.013-.021l-1.317-3.419c-.805-2.103-2.401-3.773-4.49-4.699a8.192 8.192 0 0 0-4.208-.68l-.023-.06c-.222-.578-.658-1.036-1.227-1.29s-1.203-.27-1.779-.047a2.313 2.313 0 0 0-1.288 1.227 2.31 2.31 0 0 0-.048 1.779l.02.05c-3.009 2.284-4.166 6.268-2.805 9.8l1.323 3.454v.004c.43 1.132.49 2.388.177 3.733a2.117 2.117 0 0 0-.165 1.868c.29.738 1.18 1.047 1.92.764l16.761-6.397a1.472 1.472 0 0 0 .851-1.897zM16.1 23.935a.35.35 0 0 1-.41-.277c-.077-.401-.12-.81-.127-1.219a.35.35 0 0 1 .344-.355h.006a.35.35 0 0 1 .35.344c.006.367.045.736.114 1.096a.35.35 0 0 1-.277.41zm2.88-6.857c-.465.33-.885.72-1.248 1.161a6.508 6.508 0 0 0-1.261 2.466.35.35 0 1 1-.677-.178 7.13 7.13 0 0 1 2.782-4.02.35.35 0 1 1 .404.57zM25.08 32.465l-.655.251-4.187 1.61-.654.252c.295.55.754.99 1.34 1.246a2.842 2.842 0 0 0 2.166.051l.258-.099c.703-.27 1.261-.8 1.572-1.488a2.786 2.786 0 0 0 .16-1.823z" fill="#1c95e2" class="fill-303030"></path></svg>